<svg width="26" height="27" viewBox="0 0 26 27" fill="none" xmlns="http://www.w3.org/2000/svg">
<g clip-path="url(#clip0_280_4194)">
<path d="M13.9241 7.89959C15.1962 8.11795 16.3591 8.71971 17.2858 9.64392C18.2075 10.5656 18.8118 11.7285 19.0302 13.0031C19.1139 13.5058 19.5456 13.8689 20.0559 13.8689C20.1219 13.8689 20.1803 13.8613 20.221 13.8537C20.2235 13.8537 20.2261 13.8537 20.2286 13.8511C20.5053 13.8054 20.7466 13.6556 20.9065 13.4246C21.0665 13.1961 21.1274 12.9219 21.0792 12.6502C20.7897 10.949 19.9874 9.40017 18.7559 8.16873C17.5194 6.93728 15.968 6.13494 14.2694 5.84803H14.2669C13.7007 5.75408 13.1649 6.13748 13.071 6.70115C12.9821 7.2699 13.363 7.80564 13.9241 7.89959Z" fill="#001F3F"/>
<path d="M20.3254 16.6158C19.7566 16.0242 19.0685 15.7119 18.3347 15.7119C17.6086 15.7119 16.9154 16.0191 16.334 16.6031L14.8892 18.0479C14.8537 18.0301 14.8181 18.0123 14.7851 17.9945L14.7115 17.959C14.5566 17.8803 14.3789 17.7914 14.2316 17.7C12.7488 16.758 11.3955 15.524 10.0904 13.9244C9.5318 13.2211 9.14079 12.6244 8.85387 12.0303C9.21696 11.6875 9.55465 11.3447 9.87204 11.0197C9.94313 10.9486 10.0142 10.875 10.0879 10.8014C10.1589 10.7277 10.2326 10.6541 10.3062 10.5805C10.9105 9.97618 11.2304 9.2754 11.2279 8.5543C11.2279 7.83575 10.908 7.13751 10.3062 6.53829L8.90211 5.13419C8.82086 5.05294 8.73961 4.97169 8.6609 4.89044C8.58219 4.80919 8.50094 4.72794 8.42223 4.64922L8.31051 4.53497C8.03375 4.25313 7.74684 3.96114 7.45739 3.69454C6.89372 3.1334 6.21071 2.83633 5.48708 2.83633C4.76598 2.83633 4.0779 3.1334 3.49137 3.69454C3.48883 3.69708 3.48629 3.69708 3.48629 3.69962L1.72672 5.45665C1.00817 6.1752 0.59938 7.05118 0.510513 8.05919V8.06172C0.416567 9.25508 0.632388 10.5145 1.19098 12.0252C2.03649 14.3104 3.30602 16.4279 5.18239 18.6877C7.47262 21.4172 10.2224 23.5703 13.3531 25.0861H13.3556C14.5617 25.6625 16.1816 26.3379 18.0097 26.4572C18.0123 26.4572 18.0148 26.4572 18.0173 26.4572H18.03C18.1341 26.4623 18.2433 26.4674 18.3576 26.4674C19.6398 26.4674 20.7215 26.0027 21.5695 25.0861L21.5822 25.0734C21.5923 25.0633 21.6 25.0557 21.6076 25.0455C21.8615 24.7408 22.1535 24.459 22.481 24.1441C22.707 23.9283 22.9381 23.7074 23.1615 23.4688C23.7379 22.867 24.0425 22.1662 24.04 21.4426C24.0375 20.7164 23.7277 20.0232 23.1437 19.4393L20.3254 16.6158ZM20.0461 23.6922C19.5941 24.1746 19.0761 24.3904 18.3703 24.3904C18.3043 24.3904 18.2306 24.3854 18.1545 24.3803C16.692 24.2863 15.3082 23.7074 14.2672 23.2123C11.3929 21.8285 8.87418 19.8582 6.77946 17.3547C5.06559 15.2904 3.91032 13.3658 3.14606 11.3041C2.68903 10.0777 2.51637 9.12813 2.58747 8.23184C2.63317 7.70879 2.82868 7.29239 3.20192 6.92422L4.94879 5.17735C5.13161 5.00215 5.3195 4.90821 5.49469 4.90821C5.65973 4.90821 5.83493 4.99962 6.02028 5.17989C6.02282 5.18243 6.02536 5.18497 6.0279 5.18751C6.33004 5.47188 6.62458 5.77149 6.93688 6.08633L6.94704 6.09649C7.09684 6.25137 7.2695 6.42911 7.44469 6.59922L8.84626 8.00079C9.25504 8.40958 9.25504 8.69649 8.84626 9.10528C8.69899 9.25254 8.54918 9.40235 8.40192 9.55469L8.29782 9.66133C7.90426 10.06 7.53356 10.4357 7.12985 10.7938C7.12477 10.7988 7.11715 10.8039 7.11208 10.8115L7.08668 10.8369C6.65758 11.266 6.54079 11.7789 6.74137 12.3578C6.74645 12.3731 6.75153 12.3857 6.75661 12.3984C6.75915 12.4061 6.76168 12.4137 6.76676 12.4213C7.14254 13.3277 7.67067 14.1885 8.48317 15.2168C8.48317 15.2193 8.48571 15.2193 8.48571 15.2219C9.9279 16.9967 11.4488 18.383 13.1373 19.4545C13.3582 19.5941 13.5867 19.7109 13.8 19.8176C13.9574 19.8963 14.1351 19.9877 14.2824 20.0766C14.2925 20.0842 14.3027 20.0893 14.3129 20.0943L14.3205 20.0994C14.3357 20.107 14.3509 20.1172 14.3687 20.1248C14.5896 20.2365 14.808 20.2898 15.0339 20.2898C15.4199 20.2898 15.7754 20.1299 16.0623 19.8277L17.8193 18.0707C17.9463 17.9438 18.1443 17.7914 18.3525 17.7914C18.5455 17.7914 18.7334 17.9412 18.8552 18.0682C18.8578 18.0707 18.8578 18.0707 18.8603 18.0732L21.6965 20.9094C21.9757 21.1887 22.1662 21.5188 21.6736 22.0367L21.6711 22.0393C21.5162 22.2068 21.3511 22.3668 21.1759 22.5369C21.1379 22.5725 21.0998 22.6106 21.0617 22.6486C20.7062 22.9813 20.366 23.3113 20.0461 23.6922Z" fill="#001F3F"/>
<path d="M25.4948 12.4469C25.0276 9.69714 23.7276 7.18855 21.7345 5.19538C19.7337 3.19968 17.2251 1.89968 14.4728 1.43503C13.9065 1.34109 13.3708 1.72448 13.2769 2.28816C13.1829 2.85437 13.5663 3.39011 14.1274 3.48406C16.4558 3.88015 18.5759 4.9821 20.2618 6.6655C21.9478 8.35144 23.0472 10.4716 23.4433 12.7973C23.5271 13.3001 23.9587 13.6632 24.4691 13.6632C24.4716 13.6632 24.4741 13.6632 24.4767 13.6632C24.5401 13.6632 24.5935 13.6555 24.6341 13.6479C24.6366 13.6479 24.6392 13.6479 24.6417 13.6454C24.9185 13.5997 25.1597 13.4499 25.3196 13.2188C25.4821 12.9928 25.5431 12.7186 25.4948 12.4469Z" fill="#001F3F"/>
</g>
<defs>
<clipPath id="clip0_280_4194">
<rect width="26" height="26" fill="white" transform="translate(0 0.944733)"/>
</clipPath>
</defs>
</svg>
