<svg width="26" height="18" viewBox="0 0 26 18" fill="none" xmlns="http://www.w3.org/2000/svg">
<path fill-rule="evenodd" clip-rule="evenodd" d="M0.768662 1.11398L0.922395 0.94103C1.48582 0.35185 2.3252 0.0570679 3.43976 0.0570679H22.541C23.5914 0.0570679 24.3985 0.313417 24.9623 0.82573L24.9815 0.844947C25.0968 0.947564 25.2125 1.06901 25.3274 1.21006C25.3274 1.22313 25.334 1.23581 25.3466 1.24849L25.3659 1.26771C25.789 1.79309 26 2.536 26 3.49683V14.3734C25.9873 16.6794 24.8343 17.8324 22.541 17.8324H3.43976C1.14646 17.8197 0 16.6667 0 14.3734V3.49683C0 2.45914 0.256349 1.66473 0.768662 1.11398ZM23.1752 1.94029C22.983 1.88918 22.7716 1.86957 22.5414 1.88264H3.43976C3.29871 1.86996 3.1642 1.87611 3.03622 1.90186L12.9327 11.9329L23.1752 1.94029ZM1.82557 3.28545C1.81289 3.34963 1.81289 3.41997 1.82557 3.49683V14.3734C1.82557 15.4626 2.36364 16.0068 3.43976 16.0068H22.541C23.6298 16.0068 24.1744 15.4626 24.1744 14.3734V3.51605L13.5669 13.8738C13.3747 14.0533 13.1572 14.1428 12.9139 14.1428C12.6576 14.1301 12.4396 14.0402 12.2605 13.8738L1.82557 3.28545Z" fill="#001F3F"/>
<path fill-rule="evenodd" clip-rule="evenodd" d="M0.769043 1.11368C0.794793 1.07525 0.826692 1.03682 0.865124 0.998384C0.878192 0.972634 0.897023 0.953418 0.922773 0.940735L0.769043 1.11368Z" fill="#001F3F"/>
</svg>
