<svg width="40" height="41" viewBox="0 0 40 41" fill="none" xmlns="http://www.w3.org/2000/svg">
<g clip-path="url(#clip0_280_4214)">
<path d="M40.0006 21.0675C40.0006 9.95251 31.0456 0.942505 20.0006 0.942505C8.95061 0.945005 -0.00439453 9.95251 -0.00439453 21.07C-0.00439453 31.1125 7.31061 39.4375 16.8706 40.9475V26.885H11.7956V21.07H16.8756V16.6325C16.8756 11.59 19.8631 8.80501 24.4306 8.80501C26.6206 8.80501 28.9081 9.19751 28.9081 9.19751V14.1475H26.3856C23.9031 14.1475 23.1281 15.7 23.1281 17.2925V21.0675H28.6731L27.7881 26.8825H23.1256V40.945C32.6856 39.435 40.0006 31.11 40.0006 21.0675Z" fill="#001F3F"/>
</g>
<defs>
<clipPath id="clip0_280_4214">
<rect width="40" height="40" fill="white" transform="translate(0 0.944702)"/>
</clipPath>
</defs>
</svg>
