<svg width="40" height="41" viewBox="0 0 40 41" fill="none" xmlns="http://www.w3.org/2000/svg">
<g clip-path="url(#clip0_280_4216)">
<path d="M20 0.944702C14.5725 0.944702 13.89 0.969702 11.7575 1.0647C9.625 1.1647 8.1725 1.4997 6.9 1.9947C5.56523 2.49675 4.35623 3.28427 3.3575 4.3022C2.34019 5.30144 1.55277 6.5103 1.05 7.8447C0.555 9.1147 0.2175 10.5697 0.12 12.6947C0.025 14.8322 0 15.5122 0 20.9472C0 26.3772 0.025 27.0572 0.12 29.1897C0.22 31.3197 0.555 32.7722 1.05 34.0447C1.5625 35.3597 2.245 36.4747 3.3575 37.5872C4.4675 38.6997 5.5825 39.3847 6.8975 39.8947C8.1725 40.3897 9.6225 40.7272 11.7525 40.8247C13.8875 40.9197 14.5675 40.9447 20 40.9447C25.4325 40.9447 26.11 40.9197 28.245 40.8247C30.3725 40.7247 31.83 40.3897 33.1025 39.8947C34.4364 39.3924 35.6445 38.6049 36.6425 37.5872C37.755 36.4747 38.4375 35.3597 38.95 34.0447C39.4425 32.7722 39.78 31.3197 39.88 29.1897C39.975 27.0572 40 26.3772 40 20.9447C40 15.5122 39.975 14.8322 39.88 12.6972C39.78 10.5697 39.4425 9.1147 38.95 7.8447C38.4473 6.51027 37.6599 5.30139 36.6425 4.3022C35.6441 3.28389 34.435 2.49632 33.1 1.9947C31.825 1.4997 30.37 1.1622 28.2425 1.0647C26.1075 0.969702 25.43 0.944702 19.995 0.944702H20.0025H20ZM18.2075 4.5497H20.0025C25.3425 4.5497 25.975 4.5672 28.0825 4.6647C30.0325 4.7522 31.0925 5.0797 31.7975 5.3522C32.73 5.7147 33.3975 6.1497 34.0975 6.8497C34.7975 7.5497 35.23 8.2147 35.5925 9.1497C35.8675 9.8522 36.1925 10.9122 36.28 12.8622C36.3775 14.9697 36.3975 15.6022 36.3975 20.9397C36.3975 26.2772 36.3775 26.9122 36.28 29.0197C36.1925 30.9697 35.865 32.0272 35.5925 32.7322C35.2719 33.6006 34.7601 34.3858 34.095 35.0297C33.395 35.7297 32.73 36.1622 31.795 36.5247C31.095 36.7997 30.035 37.1247 28.0825 37.2147C25.975 37.3097 25.3425 37.3322 20.0025 37.3322C14.6625 37.3322 14.0275 37.3097 11.92 37.2147C9.97 37.1247 8.9125 36.7997 8.2075 36.5247C7.33875 36.2045 6.55281 35.6936 5.9075 35.0297C5.24188 34.3848 4.72931 33.5988 4.4075 32.7297C4.135 32.0272 3.8075 30.9672 3.72 29.0172C3.625 26.9097 3.605 26.2772 3.605 20.9347C3.605 15.5947 3.625 14.9647 3.72 12.8572C3.81 10.9072 4.135 9.8472 4.41 9.1422C4.7725 8.2097 5.2075 7.5422 5.9075 6.8422C6.6075 6.1422 7.2725 5.7097 8.2075 5.3472C8.9125 5.0722 9.97 4.7472 11.92 4.6572C13.765 4.5722 14.48 4.5472 18.2075 4.5447V4.5497ZM30.6775 7.8697C30.3623 7.8697 30.0502 7.93178 29.7591 8.05239C29.4679 8.173 29.2033 8.34979 28.9804 8.57265C28.7576 8.79551 28.5808 9.06008 28.4602 9.35126C28.3396 9.64244 28.2775 9.95453 28.2775 10.2697C28.2775 10.5849 28.3396 10.897 28.4602 11.1881C28.5808 11.4793 28.7576 11.7439 28.9804 11.9668C29.2033 12.1896 29.4679 12.3664 29.7591 12.487C30.0502 12.6076 30.3623 12.6697 30.6775 12.6697C31.314 12.6697 31.9245 12.4168 32.3746 11.9668C32.8246 11.5167 33.0775 10.9062 33.0775 10.2697C33.0775 9.63318 32.8246 9.02273 32.3746 8.57265C31.9245 8.12256 31.314 7.8697 30.6775 7.8697ZM20.0025 10.6747C18.6402 10.6534 17.2872 10.9034 16.0224 11.4101C14.7577 11.9167 13.6063 12.6699 12.6354 13.6258C11.6645 14.5816 10.8934 15.7211 10.3671 16.9779C9.8408 18.2346 9.56975 19.5835 9.56975 20.946C9.56975 22.3084 9.8408 23.6573 10.3671 24.9141C10.8934 26.1708 11.6645 27.3103 12.6354 28.2661C13.6063 29.222 14.7577 29.9752 16.0224 30.4818C17.2872 30.9885 18.6402 31.2385 20.0025 31.2172C22.6989 31.1751 25.2705 30.0745 27.1624 28.1528C29.0544 26.2312 30.1148 23.6426 30.1147 20.946C30.1148 18.2493 29.0544 15.6607 27.1624 13.7391C25.2705 11.8174 22.6989 10.7168 20.0025 10.6747ZM20.0025 14.2772C21.7708 14.2772 23.4667 14.9797 24.7171 16.2301C25.9675 17.4805 26.67 19.1764 26.67 20.9447C26.67 22.713 25.9675 24.4089 24.7171 25.6593C23.4667 26.9097 21.7708 27.6122 20.0025 27.6122C18.2342 27.6122 16.5383 26.9097 15.2879 25.6593C14.0375 24.4089 13.335 22.713 13.335 20.9447C13.335 19.1764 14.0375 17.4805 15.2879 16.2301C16.5383 14.9797 18.2342 14.2772 20.0025 14.2772Z" fill="#001F3F"/>
</g>
<defs>
<clipPath id="clip0_280_4216">
<rect width="40" height="40" fill="white" transform="translate(0 0.944702)"/>
</clipPath>
</defs>
</svg>
