<svg width="23" height="29" viewBox="0 0 23 29" fill="none" xmlns="http://www.w3.org/2000/svg">
<path d="M11.0858 28.9447C10.7674 28.9447 10.478 28.8 10.2754 28.5684C9.23337 27.3817 0 16.8748 0 11.0858C0 4.97849 4.97849 0 11.0858 0C17.1932 0 22.1717 4.97849 22.1717 11.0858C22.1717 16.8458 12.9383 27.3817 11.8963 28.5684C11.6937 28.8 11.4042 28.9447 11.0858 28.9447ZM11.0858 2.1998C6.19417 2.1998 2.1998 6.19417 2.1998 11.0858C2.1998 14.9065 8.01769 22.519 11.0858 26.166C14.154 22.5479 19.9719 14.9065 19.9719 11.0858C19.9719 6.19417 15.9775 2.1998 11.0858 2.1998Z" fill="#001F3F"/>
<path d="M11.0862 16.7878C8.01806 16.7878 5.52881 14.2986 5.52881 11.2304C5.52881 8.16228 8.01806 5.67303 11.0862 5.67303C14.1543 5.67303 16.6436 8.16228 16.6436 11.2304C16.6436 14.2986 14.1543 16.7878 11.0862 16.7878ZM11.0862 7.87283C9.23373 7.87283 7.72861 9.37796 7.72861 11.2304C7.72861 13.0829 9.23373 14.588 11.0862 14.588C12.9387 14.588 14.4438 13.0829 14.4438 11.2304C14.4438 9.37796 12.9387 7.87283 11.0862 7.87283Z" fill="#001F3F"/>
</svg>
