<svg width="60" height="60" viewBox="0 0 60 60" fill="none" xmlns="http://www.w3.org/2000/svg">
<g clip-path="url(#clip0_280_2809)">
<path d="M38.4257 27.0588C38.4212 27.0736 38.4167 27.0885 38.4128 27.1033H38.4257V27.0588Z" fill="#FFFAFA"/>
<path d="M59.3619 32.8254C59.0078 32.1172 58.0756 31.5694 57.5077 30.9764C55.7367 29.1261 53.7074 27.1085 52.0741 25.1616C50.9951 23.8747 51.5018 23.2245 51.0434 21.8738C50.4047 19.9945 48.2995 18.2807 46.5458 17.4721C46.2374 18.8653 46.2297 20.3917 46.6443 21.765C46.6849 21.8982 47.0132 22.6489 46.9726 22.6927C46.9533 22.7133 46.925 22.7397 46.8851 22.7603C46.8374 22.7847 46.7821 22.7983 46.7261 22.7983C45.6638 23.0023 44.9994 21.9053 44.6472 21.0549C44.0936 19.7177 44.008 18.1153 44.4535 16.7408L42.497 15.8652C42.0205 16.294 41.7218 16.8895 41.501 17.4824C41.1649 18.3844 40.966 19.4763 40.9892 20.4413C41.0008 20.9229 41.1373 21.4064 41.1572 21.8854C39.4724 20.4529 39.0752 18.0432 39.1853 15.9277C39.1962 15.7223 39.3636 14.7025 39.3089 14.6214C37.776 14.1031 36.088 14.1398 34.5197 14.4752C34.4289 14.4501 34.0651 13.5038 33.966 13.3183C33.7947 13.0009 33.6035 12.7389 33.3692 12.4672C31.029 9.74977 27.4945 11.4095 26.6595 14.5068C26.0769 16.6719 26.6138 18.8672 27.9195 20.6467C28.0051 20.7632 28.4068 21.2081 28.663 21.5036L29.0558 21.8963C29.0976 21.8197 29.1394 21.7457 29.1813 21.68C29.5148 21.1572 29.8805 20.6441 30.3099 20.196L30.2899 20.1278C28.6663 19.0861 28.072 16.5586 28.8324 14.8274C29.5856 13.1123 31.4327 12.7318 32.4087 14.4952C32.923 15.4242 32.9353 16.4099 32.6636 17.4245C32.6288 17.5532 32.3629 18.1887 32.4009 18.2292C33.3885 18.0058 34.4192 18.0541 35.3907 18.3252C35.4216 18.4365 35.3605 18.4056 35.3302 18.4327C34.2699 19.3881 33.1773 20.1387 32.1865 21.219C24.7494 29.3296 27.519 44.4324 40.2083 44.0024C41.472 43.9592 42.7648 43.6631 44.0034 43.6212C46.6887 43.5311 47.2025 45.431 49.2028 46.4964C50.1968 47.0256 51.3151 47.1995 52.4308 47.0411L53.4125 46.7643C54.4278 46.2898 55.765 45.3363 55.9697 44.1485C56.0927 43.4352 55.6291 43.0264 55.3967 42.4656C55.8017 41.384 56.2858 40.4744 56.6644 39.3368C56.8311 38.9312 56.9335 38.4921 57.0474 38.0595C57.0474 38.0595 57.0476 38.0591 57.0481 38.0582C57.2328 37.7047 57.4936 37.135 58.0337 36.2053C58.5121 35.3826 58.964 34.574 59.3915 33.7814C59.557 33.2786 59.5415 33.1827 59.3612 32.8228L59.3619 32.8254ZM50.2264 36.271C51.1226 36.2646 52.2769 36.1287 53.193 36.1995C53.5085 36.5755 53.7969 36.8955 54.0602 37.1678C53.9405 37.3603 53.7023 37.5142 53.3559 37.5489C52.4501 37.6404 51.3035 37.5354 50.3642 37.5477C48.1186 37.5792 45.8235 37.6809 43.5779 37.6487C43.3281 37.6455 42.8498 37.5148 42.6695 37.3436C42.1126 36.8144 42.6727 36.3154 43.2927 36.2665C45.452 36.0978 48.0156 36.2858 50.2264 36.271ZM40.8109 27.1033L42.0521 25.2782L42.4905 24.6331L47.2495 25.7565L47.5694 25.8318L47.7838 26.5915L48.315 28.474L48.7785 30.1157L48.9246 30.6326L48.3497 30.5856L46.6186 30.4446L43.7157 30.209L40.4291 27.6628L40.8096 27.1027L40.8109 27.1033ZM38.4256 27.0589V27.1033H38.4127C38.4166 27.0885 38.4211 27.0737 38.4256 27.0589ZM43.2212 41.274C38.4436 43.1706 33.4844 38.0183 32.6127 33.6598C31.6412 28.7978 33.6299 23.4601 37.505 20.4162C37.5487 20.3814 37.7264 20.2379 37.765 20.2733C36.8927 21.6188 36.3088 23.1401 35.8897 24.6865C35.0888 27.6499 34.8873 31.2912 35.8922 34.225C37.0949 37.7369 40.0962 40.5722 43.8876 40.9205C43.7034 41.066 43.4408 41.187 43.2212 41.274ZM53.2613 40.0649C51.908 40.1847 50.4047 40.1621 49.036 40.2059C47.6943 40.249 45.7687 40.4621 44.4799 40.3044C43.8934 40.2329 43.341 39.5499 43.9667 39.1243C44.3498 38.8642 45.2698 38.9904 45.7642 38.9756C47.9622 38.9132 50.1775 38.8282 52.3741 38.7979C52.8615 38.7921 53.7396 38.6595 54.0853 39.0535C54.5797 39.6149 53.7557 40.0205 53.2613 40.0649Z" fill="#A50021"/>
<path d="M37.2888 49.9131C40.1897 48.3621 43.4042 47.0649 46.6406 46.425C46.6122 46.3187 46.5125 46.3348 46.4294 46.3277C46.1139 46.3026 45.7058 46.322 45.3807 46.3277C39.8157 46.4353 34.4715 47.2909 29.3784 49.5963C24.7482 51.6925 21.1011 55.4047 19.6809 59.9988H25.8627C28.8235 55.7053 33.1389 52.1309 37.2888 49.9124V49.9131Z" fill="#A50021"/>
<path d="M33.3746 45.0967L31.5024 43.8832C31.0266 43.4847 30.5245 43.1035 30.0931 42.658C29.8369 42.3934 29.5375 42.0445 29.3154 41.7503C29.2124 41.6144 28.7734 40.8502 28.6755 40.8406C25.2923 41.6769 22.0515 42.9188 19.258 45.0304C14.3137 48.7677 11.9928 54.2386 12.9643 59.8229C13.7252 59.9395 14.5055 60 15.2993 60H16.3545C16.9629 57.5877 18.0483 55.2681 19.2619 53.5781C22.6547 48.8526 27.7471 46.2594 33.3746 45.0967Z" fill="#A50021"/>
<path d="M21.6168 34.498C21.4867 34.4317 20.7805 33.9334 20.7251 33.99C20.6099 36.4564 19.3294 38.8443 17.2087 40.1325C15.4859 41.1787 12.7639 41.751 10.7682 42.0935C9.72135 42.2731 7.98953 42.4978 7.32642 41.4291C6.83456 40.6366 7.37793 40.193 7.51827 39.4134C7.62064 38.8449 7.6142 38.1902 7.40947 37.6455C7.29809 37.3494 6.85387 36.8073 7.10109 36.5279C7.27556 36.3309 8.34362 36.0309 8.65071 35.9407C8.71316 35.9227 8.78462 35.9755 8.76338 35.8648C8.18138 35.4965 6.53198 34.534 6.44184 33.8188C6.353 33.1157 7.12813 32.6477 7.5202 32.2022C7.59553 32.1166 7.66506 32.0271 7.7333 31.9363C7.82665 31.8488 7.91678 31.7573 8.00241 31.662C8.33783 31.2951 8.61981 30.8798 8.8387 30.4337C8.76016 30.2109 8.67196 29.9991 8.51616 29.7815C8.25478 29.8407 8.05005 29.9013 7.84017 29.9444C7.78287 30.0616 7.71978 30.1762 7.65154 30.2875C7.32771 30.8167 6.8822 31.27 6.36008 31.6054C6.34527 31.6131 6.33433 31.6254 6.3163 31.6279C6.31373 31.6279 6.31115 31.6279 6.30858 31.6286C5.33129 31.2069 4.61217 30.7318 5.27915 29.5787C6.41352 27.6171 7.88781 26.5046 8.19104 24.2803L10.7791 25.5395C10.7592 25.6232 10.7534 25.6239 10.8287 25.6818C11.6051 24.6253 12.7395 23.9133 13.7477 23.0957C13.7663 23.0255 13.7019 23.0184 13.6685 22.9856C13.4058 22.7242 12.9088 22.4557 12.5978 22.2163C12.2605 21.9562 11.9244 21.6768 11.5896 21.4096C11.3096 21.1862 11.3611 21.0664 10.9253 21.0297C10.0896 20.9583 8.99965 21.295 8.44084 20.4947L10.9246 14.2415C11.1776 14.1514 11.4454 14.2325 11.6836 14.2435C11.8697 14.2518 12.0719 14.2254 12.2521 14.2448C12.7581 14.2995 13.2455 14.4945 13.7483 14.5518C13.756 14.4598 13.6588 14.4495 13.5983 14.4173C12.0532 13.5791 10.7295 13.0125 9.38014 11.8003C6.94014 9.60748 5.78903 6.36531 6.6749 3.13731C6.54034 3.11027 6.59893 3.17658 6.56545 3.23903C5.574 5.07321 5.04287 7.18229 5.40662 9.27077C5.7768 11.3972 7.31805 13.064 8.9945 14.2988L9.00287 14.3587L6.15342 21.2486C6.36588 22.1145 6.61374 23.0416 6.52682 23.9442C6.35236 25.7501 3.98447 28.2216 3.0001 29.768C2.78829 30.1008 2.81791 30.2251 2.99495 30.5734C3.38252 31.335 4.34371 32.1024 4.87033 32.7797C5.44589 33.5201 4.73707 33.9726 4.79179 34.7182C4.83171 35.2557 5.51799 35.6658 5.58109 36.0083C5.63452 36.2961 5.58946 36.7706 5.6313 37.097C5.72852 37.8547 5.98088 38.1876 5.79676 39.02C5.52314 40.2587 5.06412 40.8999 5.81221 42.1843C7.05216 44.312 9.17155 44.1099 11.2896 43.7532C11.4358 43.7287 11.8272 43.5742 11.9424 43.6457C12.6835 44.715 12.9976 46.0503 12.7923 47.3443C12.7414 47.6636 12.6023 47.9244 12.5219 48.2134C12.5026 48.2836 12.4852 48.3409 12.583 48.3222C13.2223 47.4254 13.9447 46.4688 14.1185 45.3485C14.2299 44.6326 14.2022 43.9187 14.132 43.2021C15.0108 42.9671 15.905 42.7759 16.7465 42.4231C19.4131 41.3049 21.376 39.1674 22.0385 36.3238C22.117 35.9877 22.3018 35.1199 22.2432 34.8179C22.2149 34.6718 21.7623 34.5707 21.6155 34.496L21.6168 34.498Z" fill="#243B4A"/>
<path d="M9.9022 0.00516603C9.81335 -0.0160793 9.81013 0.0354245 9.76764 0.0837093C9.50626 0.384363 9.24488 0.965712 9.03564 1.56187C9.33565 1.42731 9.64017 1.30242 9.94984 1.18653C9.86807 0.78738 9.8346 0.379212 9.9022 0.00452223V0.00516603Z" fill="#243B4A"/>
<path d="M23.2502 13.2808C23.471 13.2351 24.3086 13.0619 24.429 12.9409C24.7754 12.2392 25.2074 11.5915 25.7095 10.994C25.7771 10.9136 26.1795 10.5833 26.0881 10.4945C23.0461 10.8878 19.8838 10.5614 17.1335 9.17274C14.5989 7.89287 11.1906 4.84256 10.2223 2.12895C10.118 1.83667 10.0182 1.51413 9.95064 1.18579C9.64097 1.30103 9.33581 1.42593 9.03645 1.56113C8.8446 2.10835 8.69717 2.66781 8.63665 3.03285C7.23381 11.4685 16.4317 14.6972 23.2509 13.2802L23.2502 13.2808Z" fill="#243B4A"/>
<path d="M31.725 8.48852C33.1858 8.91794 34.4856 9.95703 35.2961 11.2298C36.1099 11.2427 36.9114 11.3 37.6215 11.7281C37.6666 11.6702 37.3351 11.1519 37.272 11.0573C35.3522 8.1589 31.8518 6.39554 28.4719 5.85539C26.489 5.53864 24.4527 5.67062 22.4627 5.40924C19.7375 5.05193 16.8552 3.95876 14.9058 1.97909C14.5749 1.64302 14.2453 1.28314 14.0315 0.858235C13.9465 0.846647 13.9884 0.961887 13.9961 1.0121C14.9972 7.15458 19.5373 8.91987 25.2568 8.64175C27.4083 8.53681 29.605 7.86404 31.725 8.48724V8.48852Z" fill="#243B4A"/>
<path d="M23.7381 23.738C22.0598 23.6022 19.4981 25.7634 19.9861 27.5377C20.1863 28.2671 21.1938 28.282 21.7469 27.9626C22.2677 27.6626 21.9072 27.4521 21.9716 26.9532C22.1673 25.4422 24.2706 25.1731 24.5107 26.7149C24.8854 29.1208 22.4016 31.4282 20.0923 30.1837L19.4434 29.67C21.0438 34.0562 25.6566 31.9934 26.265 28.1616C26.5708 26.2353 26.0513 23.9241 23.7375 23.7374L23.7381 23.738Z" fill="#243B4A"/>
<path d="M16.6423 17.1636C18.5492 18.7891 21.483 18.6559 23.8341 18.4209L23.9327 18.3765C23.9803 18.3089 23.8187 17.3973 23.8084 17.2125C23.773 16.5726 23.829 15.9255 23.8573 15.2882C21.2319 15.818 18.49 15.9178 15.8826 15.2174C15.6566 15.1568 15.4377 15.0474 15.2163 14.9804C15.1525 14.9611 15.0875 14.9631 15.0759 15.0274C15.4036 15.827 15.9843 16.6022 16.6416 17.1629L16.6423 17.1636Z" fill="#243B4A"/>
<path d="M20.1296 20.6536C19.2289 20.6073 18.1995 20.4244 17.4346 19.9306L16.738 19.3699C17.1436 20.548 18.1937 21.439 19.2907 21.9663C19.6023 22.1163 20.4083 22.4807 20.7128 22.5399C20.9073 22.5779 21.2363 22.2946 21.4358 22.1923C22.632 21.5775 23.9228 21.244 25.2336 21.7423L24.7379 20.6008L24.5834 20.4193C23.1084 20.568 21.6174 20.7289 20.1296 20.6523V20.6536Z" fill="#243B4A"/>
</g>
<defs>
<clipPath id="clip0_280_2809">
<rect width="59.7753" height="60" fill="white"/>
</clipPath>
</defs>
</svg>
